<svg width="150" height="150" viewBox="0 0 150 150" fill="none" xmlns="http://www.w3.org/2000/svg">
<path d="M37.8 44V50.2H25.4V44H37.8ZM44 37.8V25.4C44 21.9758 41.2242 19.2 37.8 19.2H25.4C21.9758 19.2 19.2 21.9758 19.2 25.4V37.8C19.2 41.2242 21.9758 44 25.4 44V50.2L24.1346 50.1334C18.2969 49.5416 13.6584 44.9031 13.0666 39.0654L13 37.8V25.4C13 18.5517 18.5517 13 25.4 13H37.8C44.6483 13 50.2 18.5517 50.2 25.4V37.8C50.2 44.221 45.3192 49.4994 39.0654 50.1334L37.8 50.2V44C41.2242 44 44 41.2242 44 37.8Z" fill="#8F8F8F"/>
<path d="M37.8 130.8V137H25.4V130.8H37.8ZM44 124.6V112.2C44 108.776 41.2242 106 37.8 106H25.4C21.9758 106 19.2 108.776 19.2 112.2V124.6C19.2 128.024 21.9758 130.8 25.4 130.8V137L24.1346 136.933C18.2969 136.342 13.6584 131.703 13.0666 125.865L13 124.6V112.2C13 105.352 18.5517 99.8 25.4 99.8H37.8C44.6483 99.8 50.2 105.352 50.2 112.2V124.6C50.2 131.021 45.3192 136.299 39.0654 136.933L37.8 137V130.8C41.2242 130.8 44 128.024 44 124.6Z" fill="#8F8F8F"/>
<path d="M124.6 130.8V137H112.2V130.8H124.6ZM130.8 124.6V112.2C130.8 108.776 128.024 106 124.6 106H112.2C108.776 106 106 108.776 106 112.2V124.6C106 128.024 108.776 130.8 112.2 130.8V137L110.935 136.933C105.097 136.342 100.458 131.703 99.8666 125.865L99.8 124.6V112.2C99.8 105.352 105.352 99.8 112.2 99.8H124.6C131.448 99.8 137 105.352 137 112.2V124.6C137 131.021 132.119 136.299 125.865 136.933L124.6 137V130.8C128.024 130.8 130.8 128.024 130.8 124.6Z" fill="#FF4D47"/>
<path d="M124.6 44V50.2H112.2V44H124.6ZM130.8 37.8V25.4C130.8 21.9758 128.024 19.2 124.6 19.2H112.2C108.776 19.2 106 21.9758 106 25.4V37.8C106 41.2242 108.776 44 112.2 44V50.2L110.935 50.1334C105.097 49.5416 100.458 44.9031 99.8666 39.0654L99.8 37.8V25.4C99.8 18.5517 105.352 13 112.2 13H124.6C131.448 13 137 18.5517 137 25.4V37.8C137 44.221 132.119 49.4994 125.865 50.1334L124.6 50.2V44C128.024 44 130.8 41.2242 130.8 37.8Z" fill="#FFBB00"/>
<path d="M99.8 28.5V34.7H50.2V28.5H99.8Z" fill="#8F8F8F"/>
<path d="M99.8 115.3V121.5H50.2V115.3H99.8Z" fill="#8F8F8F"/>
<path d="M34.7 99.8L28.5 99.8L28.5 50.2L34.7 50.2L34.7 99.8Z" fill="#8F8F8F"/>
<path d="M121.5 99.8L115.3 99.8L115.3 50.2L121.5 50.2L121.5 99.8Z" fill="#8F8F8F"/>
</svg>
