<svg width="99" height="105" viewBox="0 0 99 105" fill="none" xmlns="http://www.w3.org/2000/svg">
<path d="M19.8 26.25V31.5H9.9V26.25H19.8ZM24.75 21V10.5C24.75 7.6005 22.5338 5.25 19.8 5.25H9.9C7.16619 5.25 4.95 7.60051 4.95 10.5V21C4.95 23.8995 7.16619 26.25 9.9 26.25V31.5L8.8897 31.4436C4.22901 30.9425 0.525688 27.0147 0.0531738 22.0715L0 21V10.5C0 4.70101 4.43238 1.69117e-07 9.9 0H19.8C25.2676 0 29.7 4.70101 29.7 10.5V21C29.7 26.4372 25.8032 30.9067 20.8103 31.4436L19.8 31.5V26.25C22.5338 26.25 24.75 23.8995 24.75 21Z" fill="#8F8F8F"/>
<path d="M19.8 99.75V105H9.9V99.75H19.8ZM24.75 94.5V84C24.75 81.1005 22.5338 78.75 19.8 78.75H9.9C7.16619 78.75 4.95 81.1005 4.95 84V94.5C4.95 97.3995 7.16619 99.75 9.9 99.75V105L8.8897 104.944C4.22901 104.442 0.525688 100.515 0.0531738 95.5715L0 94.5V84C0 78.201 4.43238 73.5 9.9 73.5H19.8C25.2676 73.5 29.7 78.201 29.7 84V94.5C29.7 99.9372 25.8032 104.407 20.8103 104.944L19.8 105V99.75C22.5338 99.75 24.75 97.3995 24.75 94.5Z" fill="#8F8F8F"/>
<path d="M89.1 99.75V105H79.2V99.75H89.1ZM94.05 94.5V84C94.05 81.1005 91.8338 78.75 89.1 78.75H79.2C76.4662 78.75 74.25 81.1005 74.25 84V94.5C74.25 97.3995 76.4662 99.75 79.2 99.75V105L78.1897 104.944C73.529 104.442 69.8257 100.515 69.3532 95.5715L69.3 94.5V84C69.3 78.201 73.7324 73.5 79.2 73.5H89.1C94.5676 73.5 99 78.201 99 84V94.5C99 99.9372 95.1032 104.407 90.1103 104.944L89.1 105V99.75C91.8338 99.75 94.05 97.3995 94.05 94.5Z" fill="#8F8F8F"/>
<path d="M89.1 26.25V31.5H79.2V26.25H89.1ZM94.05 21V10.5C94.05 7.6005 91.8338 5.25 89.1 5.25H79.2C76.4662 5.25 74.25 7.60051 74.25 10.5V21C74.25 23.8995 76.4662 26.25 79.2 26.25V31.5L78.1897 31.4436C73.529 30.9425 69.8257 27.0147 69.3532 22.0715L69.3 21V10.5C69.3 4.70101 73.7324 1.69117e-07 79.2 0H89.1C94.5676 0 99 4.70101 99 10.5V21C99 26.4372 95.1032 30.9067 90.1103 31.4436L89.1 31.5V26.25C91.8338 26.25 94.05 23.8995 94.05 21Z" fill="#FFBB00"/>
<path d="M69.3 13.125V18.375H29.7V13.125H69.3Z" fill="#8F8F8F"/>
<path d="M69.3 86.625V91.875H29.7V86.625H69.3Z" fill="#8F8F8F"/>
<path d="M17.325 73.5L12.375 73.5L12.375 31.5L17.325 31.5L17.325 73.5Z" fill="#8F8F8F"/>
<path d="M86.625 73.5L81.675 73.5L81.675 31.5L86.625 31.5L86.625 73.5Z" fill="#8F8F8F"/>
</svg>
